<svg id="Layer_1" data-name="Layer 1" xmlns="http://www.w3.org/2000/svg" viewBox="0 0 370.91 352.76">
  <title>splatter3</title>
  <g id="QzlmQJ.tif">
    <path d="M315.8,0.5c-4.5,8.1-9.1,16.2-13.6,24.3-11.1,19.9-23.7,39.1-28.8,61.7a39.59,39.59,0,0,0-1,10.3c11.2-6.9,15.9-18.6,21.5-29.5l1.2,0.8c-2.9,6.1-5.7,12.1-8.6,18.2-2.8,5.9-5.6,11.7-8.4,17.5a9.19,9.19,0,0,0-1.1,3.3c-0.1,9.7.4,19.5-.5,29.1-0.5,5.3,1.5,9.1,3.8,13.2,1.6,2.8,3.5,3.9,6.5,2.9,5.6-1.9,11.3-3.9,16.9-5.8a15.14,15.14,0,0,1,3-.2c-5.4,3.5-12.2,3.6-12.2,11.2,3.8,5.1,8.4,5.8,19,1.6h-4l-4.6.3c0.2-1.4.4-2.7,0.6-4,0.8-5.6,4.8-8.2,9.7-9.7,1.9-.6,4-0.5,7.4-0.8l7.8,6.1-2.6,5.2,42.1-8.3,0.2,0.5c-1.2.4-2.4,0.8-3.6,1.1-7.7,1.9-15.5,3.8-23.2,5.9-1.6.4-2.8,1.9-4.2,2.9l0.7,1.6,26.1-4.8,0.2,1c-7.3,1.5-14.8,2.7-22,4.5-4.2,1.1-8.2,3.2-12.4,4.7a8.36,8.36,0,0,1-4.7.4c-5.9-1.7-13.6,1.8-16.8,8.8,6.9-7.3,15.4-3.4,22.8-5.4l-6.5,2a49.42,49.42,0,0,1,4.2,2.7c1.3,1.1,3.3,2.4,3.3,3.6,0,1.4-1.8,3-3.1,3.9-2.8,1.9-5.8,3.4-9.4,5.4l4.1,3.9-3.1,2.8c9.3,9.4-1.5,14.2-5,21.2l4.6,2c-1-6,.2-7.8,5.4-9.7,1.7-.6,3.1-2.3,4.8-2.9,2.9-1,5.9-2.1,8.8-1.9s3.4,3.9.8,6.2c-4.2,3.9-8.7,7.5-13.8,11.9,4-1.5,7.7-2.5,11.1-4.1,2.2-1,10.5-.4,12,1.5a2.76,2.76,0,0,1,.3,2.2,8.51,8.51,0,0,1-3.1.9c-3.2.3-6.5,0.4-9.7,0.5l-0.1,1.7,5.8,1.9-1.5,2.7,4.7,0.6v-6.7l9.4,6.8c-5.3,1.3-9.2,2.1-13,3.2-0.7.2-.9,1.7-1.4,2.6-0.3.6-.6,1.6-1.1,1.8-3.9,1.1-7.9,2-11.8,3.2a19.21,19.21,0,0,0-4.7,2.5c-1.4,1.2-2.8,2.4-4.1,3.7l6.3,2.7-0.3,1.2a15.79,15.79,0,0,1-4.2-.9c-4.9-2.2-8.6-1.8-12.4,2.7-1.3,1.6-5.7.7-8.7,0.6-1.2,0-2.4-.7-4.2-1.2a18.59,18.59,0,0,1,.4,3.3c-0.1,1.4-.2,3.6-0.9,3.8a5.24,5.24,0,0,1-4.4-.6c-2.6-2.4-4.7-2.4-7.8-.7s-6.9,2.8-9.2-2c-0.7-1.4-2.6-2.1-4.7-2.4l1.9,4.2-8.5-5.7c0,2.6,2.3,5.6-2.4,4l3.2,7.4a22,22,0,0,0-3.3-3.5c-1.2-.8-3.8-1.8-4-1.6a32.82,32.82,0,0,0-3.5,7.9c-0.2.7,1.7,2.2,2.8,3,0.4,0.3,1.5-.4,2.2-0.6l6-2-0.5-3.3c7-.3,11.2,5.1,16.8,8.6l0.3-4.2,12.9,19.9-1.6,1.2-6.9-10.3c-6.4,1.4-7.5.6-8.1-5.4-3.2,2.1-6.2,5.3-9.8,6.3-3.8,1-8.1-.1-12-0.3l5.7,5a69.62,69.62,0,0,0-3.4,6.7,6.33,6.33,0,0,0-.2,3.6c2.3,12.1,4.7,24.1,7,36.2a6.37,6.37,0,0,1-.4,4.3c-2.5-12.1-5.1-24.2-7.5-36.4-0.9-4.5-1.6-8.7-8.7-7.7l3.5,38.4-1.3.2c-2.3-9.6-1.3-19.9-5.8-29-2,17.5,4.5,33.9,5.2,51.2a28.28,28.28,0,0,1-1.4-4.1c-2.5-12.2-4.2-24.6-7.5-36.6-2.2-8-6.1-15.5-9.8-23.1-3.3-6.9-7.2-13.4-10.8-20.2-1.2-2.3-2.2-5.2-5.2-3.5-1.2.7-1.8,4.1-1.2,5.8,2.4,8.1,5.3,16.1,8,24.1a8.14,8.14,0,0,1,.4,4.1c-6.1-12.9-8.3-27.5-18-39.1l-1.9,3.3-2.9-4.7-1.5,5.1-1-.2a47.76,47.76,0,0,0,.6-5.3,18.64,18.64,0,0,0-1-3.9,22.7,22.7,0,0,0-3.1,3.1,10.83,10.83,0,0,0-1.1,3,57.34,57.34,0,0,0-5.4-5.6c-0.2-.1-2.1,1.8-3.5,2.9l-1.2-3.9-9.7,2.6h0c6.4-4,2.8-9.9,2.6-14.9-0.1-1.1-2.5-2.6-4-2.9-1.2-.2-3.1.8-4,1.8-1.9,2.2-3.4,4.8-6.1,6.7l2.6-6.1-2.6-1.1c0.5-3.6,6.2-5.6,3.1-10l-7.2,5c6-10.6,6-10.9-.3-14.8-0.9,3.7-1.4,7.6-2.7,11.2-1.4,3.8-4.8,5.4-8.8,4.9-6.3-.9-10.4-4.4-11.1-8.9-0.7-4.1-1.6-8.2-1.9-12.4-0.5-7.2-1.8-8-11.3-9.6-5.8-1-11.2-3.4-16.9-4.8a14.65,14.65,0,0,0-6.9-.2,88.91,88.91,0,0,0-10.1,4.1,44.72,44.72,0,0,0-6.3-6c-0.7-.5-2.9.4-3.8,1.3s-1.8,3.3-1.4,3.8c1.4,1.5,3.4,2.4,5.2,3.5-0.3,1.2-1,2.7-.7,3.7,1.8,5.1.6,9.6-2.3,13.7s-11.3,5-15.1,1.9l-1.1,1.9,1.4-1.6c-1.9-1.1-3.7-2.2-5.6-3.2a8.82,8.82,0,0,1-4.6-5.7c-0.6-1.8-2.5-3.2-3.6-4.5l2.6-.9-0.1-.7h-11l2.7,8.1-1.7.6a35.32,35.32,0,0,1-2.2-5.9c-0.5-2.6-.7-4.8-4.3-3.4-0.7.3-1.8-.5-2.7-0.5-1.9,0-3.8,0-5.7.1-1.5.1-3,.3-4.6,0.5l-0.5-1.2,2.8-1.8-7-11.7a2.47,2.47,0,0,1-.4-0.9C17,186,17,186,10.1,186H-0.1c5.3-.5,9.3-1.2,13.3-1.2,6.6-.1,9.6-3.9,12.4-9.3,2.2-4.2,4.7-8.1,5.3-13,0.2-1.2,3-2,4.4-2.8,0.4-3.7.1-7.9,1.5-11.3s4.5-6.1,6.9-9.1l-1.9-.5c2.3-2.4,4.2-4.9.9-6.4v-9.8l1.9-.2C48.5,109.2,58.9,107,69,106.3c2.1,0.8,3.6,1.7,5.2,1.9,3.7,0.6,6.8,2.4,8.4,5.5s3.9,3.8,6.7,3a10.88,10.88,0,0,1,13.7,7,10.24,10.24,0,0,1,.5,3.5c0.1,4.6-.9,9.1-5.3,11.4-4.9,2.6-10.1,4.3-15.6-2-1,4-1.7,7-2.6,9.9-0.9,3.2-1.5,6.6-3.3,9.2-1,1.4-4.2,1.9-6.3,1.7-3.6-.3-5.6,1.1-6.8,4.3a4.53,4.53,0,0,1-1.1,1.9c-4.7,3-4.7,6.4-1.6,10.2L76.1,169c1.3,2.3,2.6,4.4,3.6,6.6s1.8,4.8,2.9,7.7l8.2-1.4a16.35,16.35,0,0,0-.2-2.2c-3.2-7.7-1.9-9.9,6-12.7,5.7-2,10.2-1.7,13.6,3.8a4.94,4.94,0,0,0,1.9,1.6c5.7,2.7,12.1,4.4,13,12.8l1.4-.9c1.4-5.1,3-10.2,4.3-15.4,0.6-2.4-.5-4-3.2-4.6-3.4-.7-7.1-2.3-6.1-6.3,0.6-2.6,3.2-5.8,5.6-6.5,3.2-.9,7,0.1,10.5.8,2,0.4,3.8,1.8,5.4,2.6,0,0.8-.4,2.5.1,3a3.71,3.71,0,0,0,3.4.2c5.3-2.3,10.2-1.1,15.3.7,1.7,0.6,3.8.1,5.6,0.1l0.1-1.8-5.9-1.5c4.1,0.6,5.9-1.2,5.5-5.8h7.2l-3.1-4.2c1.3-.6,3.1-0.8,3.9-1.8,0.9-1.2.8-3,1.1-4.2,2.4,0.6,5.3,2.1,8.2,2.1s5.8-1.6,8.9-2.5a94.85,94.85,0,0,0-.2-11.9c-0.2-1.5-2.2-2.8-3.4-4.1h2.6c-1.4-12.7-1.8-25.4-4.6-37.5-2.8-11.9-6.9-23.5-7.9-35.7l1.5-.4a24.75,24.75,0,0,0,.6,2.9q5.4,19.35,11.1,39c-1.7.9,0.1,15.5,4.6,21.4l-1.1-8,5.2,2.5-7.9-46.1,0.9-.2,10.9,54,1.7-.2,0.5-10.9,1.1-.1,3,18.5,1.7-3.3,0.6,7.4c6.3-4.2,4.3-11.7,9.2-17.1l-1.8,8.9,4.8-.7-5.9,4.1,0.6,1.1,2.4-.8c0.8,2.4-.3,7.5,5.2,3.7l-2.6-4c8.3,4.5,11-2.2,15.6-5.8l-0.5,4,1.2,0.8,10.8-12.9,1.1,0.6c-1.9,3.8-4.9,7.6-5.2,11.5-0.2,3.4,2.8,7,4.3,10.6l1.7-.4a14.91,14.91,0,0,0,1.3-3.9c0.2-4.8,2.2-8.8,5-12.7,1.6-2.2,1.3-5.7,2.2-8.5,1.2-3.5,2.9-6.9,4.3-10.4,1.3-3.2,4-6.3,1.4-10.4L267,86.7l-0.8-.5c4.2-8.6,8-17.4,12.7-25.7,10.5-18.7,21.5-37.1,32.3-55.6,0.9-1.5,1.6-3.2,2.4-4.8l2.2,0.4h0Z" transform="translate(0.15 0.46)" fill="#fff" stroke="#fff" stroke-miterlimit="10"/>
  </g>
  <g style="isolation: isolate">
    <g style="isolation: isolate">
      <path d="M202.76,193.7H191.45l-2.4-2.4,0.24-.24h10.83v-2.78l0.24-.24,2.4,2.4v3.26Zm-7.85-14v1.39h-2.64v-4h7.85v-2.78l0.24-.24,2.4,2.4v3.26h-7.85Zm4,1.15,2.4,2.4v3.26h-6.36v1.78h-2.64v-4.42h6.36v-2.79Z" transform="translate(0.15 0.46)"/>
      <path d="M204.05,193.7l-2.4-2.4,0.24-.24h3.41l3.48-5.76,2,3.36-2.93,5h-3.77Zm1.66-19.54,0.12-.14,2.4,2.4,1.44,2.45-0.48.84h-0.24Zm6.41,17.14,0.24-.24,3.43,0-5.06-8.43,4.9-8.4L216,174l2.4,2.4-5,8.64,5.16,8.64h-4Z" transform="translate(0.15 0.46)"/>
      <path d="M232.3,177.62a3.08,3.08,0,0,1,.72,2.21v4.37a3.25,3.25,0,0,1-3.41,3.41h-5.38v6.1h-3.46l-2.4-2.4,0.24-.24h3V185h5.62a2.88,2.88,0,0,0,3.17-3.17v-4.37a3.94,3.94,0,0,0-.5-2.23Zm-5.71-.58a0.73,0.73,0,0,1,.82.82v1.82h-3.17v2.5h-2.64V177h5Z" transform="translate(0.15 0.46)"/>
      <path d="M235.8,193.7l-2.4-2.4,0.24-.24h10.22v-2.78l0.24-.24,2.4,2.4v3.26H235.8ZM236.86,174l2.4,2.4v11.86h-2.64v-14Z" transform="translate(0.15 0.46)"/>
      <path d="M260.21,177.52a3.07,3.07,0,0,1,.72,2.21v10.66a3.25,3.25,0,0,1-3.41,3.41h-5.78a3.46,3.46,0,0,1-2.69-1.2l-1.94-1.95a3.37,3.37,0,0,0,2.23.51h5.79a2.88,2.88,0,0,0,3.17-3.17V177.33a4.37,4.37,0,0,0-.5-2.23Zm-5.71-.58a0.73,0.73,0,0,1,.82.82v1.82H252.6a0.74,0.74,0,0,0-.82.82v8H250a0.73,0.73,0,0,1-.82-0.82v-9.79a0.73,0.73,0,0,1,.82-0.82h4.54Z" transform="translate(0.15 0.46)"/>
      <path d="M267.77,193.7h-3.46l-2.4-2.4,0.24-.24h3v-6.41h3.22l1.15,2.64h-1.73v6.41ZM270.1,177a0.73,0.73,0,0,1,.82.82v1.82h-3.14v2.23h-2.64V177h5Zm1.08,14h3.07l-2.76-6.31a3.44,3.44,0,0,0,2.4-3.26v-4.06a4,4,0,0,0-.5-2.23l2.42,2.42a3.08,3.08,0,0,1,.72,2.21v4.06a3.21,3.21,0,0,1-2.35,3.26l2.88,6.55h-3.72l-2.4-2.4Z" transform="translate(0.15 0.46)"/>
      <path d="M291.22,193.7H279.91l-2.4-2.4,0.24-.24h10.83v-2.78l0.24-.24,2.4,2.4v3.26Zm-7.85-14v1.39h-2.64v-4h7.85v-2.78l0.24-.24,2.4,2.4v3.26h-7.85Zm4,1.15,2.4,2.4v3.26h-6.36v1.78h-2.64v-4.42h6.36v-2.79Z" transform="translate(0.15 0.46)"/>
    </g>
    <g style="isolation: isolate">
      <path d="M201.27,215.44h-6.36v7.06h-3.46l-2.4-2.4,0.24-.24h3V212.8h6.36V210l0.24-.24,2.4,2.4v3.26Zm-6.36-7V210h-2.64v-4.18h7.85v-2.78l0.24-.24,2.4,2.4v3.26h-7.85Z" transform="translate(0.15 0.46)"/>
      <path d="M207.27,218.61l-1.15,3.89h-3.58l-2.4-2.4,0.24-.24h3.1l1.15-3.89h6.07l0.7,2.64h-4.13Zm2-6.91-0.43,1.49h-3.36l1.94-6.58,0.24-.24,0.24,0.24Zm2.28,8.4,0.24-.24h3.24l-5.57-16.8,0.24-.24,2.4,2.4,5.57,17.28H214Z" transform="translate(0.15 0.46)"/>
      <path d="M231.63,214.39a2.45,2.45,0,0,1,.7,1.78v2.93a3.37,3.37,0,0,1-.94,2.45,3.44,3.44,0,0,1-2.47,1H220l-2.4-2.4,0.24-.24h8.69a2.88,2.88,0,0,0,3.17-3.17v-2.83a2.79,2.79,0,0,0-1.7-2.59,2.82,2.82,0,0,0,1.51-2.59v-2.45A3.71,3.71,0,0,0,229,204l2.42,2.42a3.07,3.07,0,0,1,.72,2.21v2.45a2.8,2.8,0,0,1-1.34,2.5Zm-5.93-8.59a0.72,0.72,0,0,1,.82.82v1.82h-3.07V210H220.8v-4.18h4.9Zm-0.1,6.77c0.67,0,1.1,0,1.1.77v1.87h-3.26v1.92H220.8v-4.56h4.8Z" transform="translate(0.15 0.46)"/>
      <path d="M239,222.5h-3.46l-2.4-2.4,0.24-.24h3v-6.41h3.22l1.15,2.64H239v6.41Zm2.33-16.66a0.73,0.73,0,0,1,.82.82v1.82H239v2.23h-2.64v-4.87h5Zm1.08,14h3.07l-2.76-6.31a3.44,3.44,0,0,0,2.4-3.26v-4.06a4,4,0,0,0-.5-2.23l2.42,2.42a3.07,3.07,0,0,1,.72,2.21v4.06a3.22,3.22,0,0,1-2.35,3.26l2.88,6.55h-3.72l-2.4-2.4Z" transform="translate(0.15 0.46)"/>
      <path d="M251.16,222.5l-2.4-2.4,0.24-.24h3v-16.8l0.24-.24,2.4,2.4V222.5h-3.46Z" transform="translate(0.15 0.46)"/>
      <path d="M270.29,219.19a3.25,3.25,0,0,1-3.41,3.41h-5.47a3.45,3.45,0,0,1-2.69-1.2l-1.94-1.94a3.37,3.37,0,0,0,2.23.5h5.47a2.88,2.88,0,0,0,3.17-3.17v-2.54l0.24-.24,2.4,2.4v2.78Zm-8-10.8a0.73,0.73,0,0,0-.82.82v8h-1.82a0.73,0.73,0,0,1-.82-0.82v-9.79a0.73,0.73,0,0,1,.82-0.82h4.22a0.73,0.73,0,0,1,.82.82v1.82h-2.4Zm7.3-2.06a3.07,3.07,0,0,1,.72,2.21v2.78h-3.46l-2.4-2.4,0.24-.24h3v-2.54a3.72,3.72,0,0,0-.5-2.23Z" transform="translate(0.15 0.46)"/>
      <path d="M276.34,214.92a5.05,5.05,0,0,1-2.59-1.32l-2.28-2.28a4.67,4.67,0,0,0,2.47,1l4.7,1a0.79,0.79,0,0,1,.82.82v1.54Zm7.8-1.06a3,3,0,0,1,.94,2.21v3.12a3.25,3.25,0,0,1-3.41,3.41h-5.38a3.46,3.46,0,0,1-2.69-1.2l-1.94-1.94a3.37,3.37,0,0,0,2.23.5h5.38a2.88,2.88,0,0,0,3.17-3.17v-3.12a2.84,2.84,0,0,0-.6-2.11Zm-9.72,3.31a0.73,0.73,0,0,1-.82-0.82v-1.54l0.24-.24,2.59,2.59h-2Zm0.1-7.73a0.79,0.79,0,0,1-.82-0.82v-2.06a0.73,0.73,0,0,1,.82-0.82h3.94a0.71,0.71,0,0,1,.82.82v1.34h2.88v-1.78a4.19,4.19,0,0,0-.5-2.23l2.42,2.42a3.07,3.07,0,0,1,.72,2.21v2h-3.36l-2.16-2.16h-2.11a0.72,0.72,0,0,0-.82.82v0.62Z" transform="translate(0.15 0.46)"/>
    </g>
  </g>
</svg>
