<svg id="Layer_1" data-name="Layer 1" xmlns="http://www.w3.org/2000/svg" viewBox="0 0 489.73 359.34">
  <title>splatter1</title>
  <g id="_7Y2h1i.tif" data-name=" 7Y2h1i.tif">
    <g>
      <path d="M0,324.69c6.28-2.94,12.58-5.85,18.83-8.85,2.1-1,4.08-2.23,6.12-3.36l-1-1.79-18.33,9-1.66-2a22.06,22.06,0,0,0,3.15-1q9.93-5.14,19.8-10.4c3.36-1.8,6.63-3.79,10-5.66,9.8-5.52,19.53-11.19,29.5-16.39a7,7,0,0,1,6.37.78c2.35,2.12,2,5.5-.57,7.43a92.44,92.44,0,0,1-14.14,9.07c-17.56,8.54-35.29,16.75-53,24.94-1.42.66-3.35,0.2-5,.27v-2Z" transform="translate(0 -0.03)" fill="#f8f8f8"/>
      <path d="M201.15,4.69l14,34.77c3.75-1.37,3.43-3.13,2.09-5.93-3.58-7.47-6.77-15.12-10-22.74-0.35-.82-0.15-1.88,1-3.26L218.66,33l1.62-.61L213.45,0.33l1.41-.3c2,8.53,3.53,17.19,6.06,25.55S225.2,43.11,236,47.25L230.11,29l1.65-.61a33.78,33.78,0,0,1,2,4.32c3.28,10.8,6.28,21.7,9.79,32.42,1.89,5.79,4.51,11.26,12.35,10.87,1.3-.07,2.7,2.06,5.17,4.08L289,47.16l0.54,0.26c-2.12,3.08-4,6.43-6.42,9.19-6.45,7.2-6.75,16.48-8.66,25.13-0.51,2.29,1.68,5.18,3,8.69L285,79.59l-3.39,10.93,1.29,0.66,7.28-8.12L291.5,84c-1,1.82-2.4,3.53-3,5.48s-0.18,3.87-.21,5.82c1.76-.44,3.87-0.41,5.19-1.42,2.81-2.14,5.2-4.83,8.56-6.66L295.3,97.87c7.54,0.13,12.59-4.08,18.77-4.91,1.89,2.08,4.37,3.07,8.2,1.62,6.42-2.43,13-5.59,20-1.39,0.71,0.42,2.56-.42,3.5-1.16,4.8-3.8,9.45-7.79,14.2-11.66,1.56-1.27,3.28-2.36,4.92-3.53l1.63,1.82L345.6,100.81l1.39,1.74,27.09-18.19c-4.35,6.44-13.72,8-15.17,17.15L408,84.44c-16.71,8.38-35.64,11.48-51.14,22.62C372,104.54,385.14,96.18,400,92.69c-6.92,3.05-13.82,6.15-20.76,9.15-13,5.62-26,11.18-38.93,16.78a9.32,9.32,0,0,0-2.57,1.46c-6.71,6.06-13.37,12.16-20.3,18.48,1.28,1.32,4.55,3.62,4.2,4.56-0.92,2.46-3.42,4.34-6.06,7.32,2.26,0.66,4.23,1.71,6.22,1.74,9.21,0.16,18.21-1,26.8-4.7a12.72,12.72,0,0,1,7.28-.36c-11,2.84-14.36,13.08-21.43,19.44l1.28,2,17.76-8.39,0.61,0.73a36.06,36.06,0,0,1-3.79,2.84c-3,1.73-6.19,3.23-9.24,4.93-5.42,3-10.12,6.64-10.5,13.88l8.55-2.92,0.38,0.92-10.1,4.6,0.41,1.91c4.07-.49,8.26-0.51,12.18-1.55,10.57-2.79,21-6,31.82-8.17-3.08,1-6.13,2.18-9.24,3.12-10.5,3.15-21.12,6-31.48,9.53-2.65.91-4.51,4.1-7.65,7.13h41.09l0,0.32-44,3.15c-1.62,4.19.11,5.58,3.29,6,4.22,0.48,8.45.92,13,1.41-1.9,1.46-3.41,2.56-4.76,3.82-0.09.09,1,2.08,1.53,2.08a23.12,23.12,0,0,0,4.87-1c0.92,3.11,1.8,7.14,5.53,6.31l6.88,10.29-0.66,2,5.22,1.08L352.22,240c1.61,1.53,4.55,3,1.58,6.76-1.47,1.85-1,5.22-1.61,8.86l2.86,2c-3.67-.15-7.8-0.93-4.94,5.37-5.83-3.93-5.07,2.91-8,3.72-0.33.09-.32,1.4-0.64,1.49-4.17,1.12-4.18,1.09-2.3,6.44L336,270.73l-5.54,1.6-1,5-1.18-4.64-1.32-.55-3.49,6-0.88-4.92H316L314.32,277l-0.54-.12,0.39-4.76c-3,1.2-5.36-6.07-8.7-.33l1.7-3.77c-4.51.29-5.52-8.7-12-3.87l3.67-4.13-3.76-.52c1.89-5,1.53-5.54-4.54-5.87l4-2.51-3.65-1.59,4.11-4.38-0.88-1.3-7.79-.46-0.19-.82a17.62,17.62,0,0,0,4.14-.73,19.81,19.81,0,0,0,3.58-2.53,33,33,0,0,0-3-2.63c-0.87-.63-1.94-1-2.59-2.59l4.86,1.17c3.83-3.77,0-7.54-.25-11.28,0-.19-2.32-0.66-2.55-0.31a17.31,17.31,0,0,0-2.51,5.13c-0.24.91,0.61,2.11,1,3.18l-1.18,1.07L283,228.79H271.36l-2.44,18.09H267.6a84.62,84.62,0,0,0-.11-9c-0.12-1.07-1.49-2-2.28-3-0.64,1.12-1.85,2.27-1.79,3.36a44.42,44.42,0,0,0,1.39,7l-1.51.38c-0.9-3.17-1.6-6.42-2.74-9.51-2.57-7-3.7-7.46-11.18-5.63-1.62.4-3.24,1.17-4.84,1.11s-4.53-.56-4.81-1.48c-1.62-5.36-5.95-5.09-9.58-4.34s-7.45,2.37-9.76,4.91c-3,3.31-6,4-10.2,4.79-6.4,1.15-12.46,4.17-18.65,6.45-2.18.8-4.23,2.27-6.46,2.58-13.58,1.9-25.49,8-37.37,14.29-8.63,4.6-17.89,8.08-26.24,13.1-9.34,5.61-17.93,12.49-26.94,18.66-10.28,7-20.69,13.88-31,20.88-1.92,1.3-3.46,3.26-5.5,4.24-1.45.7-3.45,0.25-5.2,0.32,0.59-1.49.74-3.57,1.83-4.36,6.86-5,13.88-9.75,20.92-14.47,10.18-6.82,20.51-13.22,29.53-21.86,6.79-6.5,15.9-10.63,24.15-15.52,6.07-3.6,12.51-6.58,18.58-10.18,1.84-1.09,3-3.31,4.46-5a13.68,13.68,0,0,1,1.1-1.65q8.15-7.26,16.36-14.26l9-7.76c-0.47-3.56-5.49-6.3-10.35-5A106.37,106.37,0,0,0,157.62,219c-1.35.51-2.1,2.42-3.33,3.43a48.59,48.59,0,0,1-7.6,5.6c-3.17,1.68-6.71,2.66-10.05,4-0.74.3-1.91,0.89-1.95,1.41-0.57,8-7.36,8.64-12.43,8.94-9.2.55-15.79,6.66-23.93,9.2-0.62.19-1.17,0.88-1.76,0.89a40.28,40.28,0,0,1-4.33-.36c0.95-1.17,1.67-2.79,2.89-3.42,3.23-1.67,6.83-2.64,10-4.38q23-12.47,45.76-25.23c4.58-2.55,9.07-5.27,13.56-8a47.47,47.47,0,0,0,4.44-3.11c4.05-3.13,8.16-6.2,12.06-9.51a18.19,18.19,0,0,0,4.72-5.53c1.35-2.79.89-5.07-2.81-6.53a48.86,48.86,0,0,1-11.54-6.75c-10.64-8.18-21.53-14.89-35.54-16.58-16.15-1.95-32-6.11-48.1-8.82-10.27-1.73-20.69-2.57-31-4a354.86,354.86,0,0,1,84.23,12.61l0.36-1.54-7.75-2.67,0.26-.9,14.81,4.12c5.56,1.55,11.11,3.12,16.68,4.63,1.44,0.39,3.13.26,4.35,1,3.38,2,6.1.89,7-2.28s0.43-6.34-3-8.59c-6.51-4.21-13.88-7.86-18.87-13.53a186.75,186.75,0,0,0-35.28-31.45,3.29,3.29,0,0,1-1.31-2c-0.89-7-5.15-11.32-11-14.56a5.24,5.24,0,0,1-1.4-1.38c-0.16-.21-0.09-0.6-0.34-2.6,4.9,3.46,9.08,6.12,12.92,9.2,8.43,6.76,16.59,13.87,25.07,20.57,3.73,2.95,7.19,2.09,11.5-2.69L107.13,88.6l0.68-1.22c16.73,9.07,32.29,20.51,51,25.94l-3.75-3.94a69.63,69.63,0,0,1,7.64,1.74,53.55,53.55,0,0,1,6,3l0.71-1.37-23.17-22.5,1.19-1.2c6.47,5.17,11,12.65,18,17.14l1.59-1.42c-4.4-6.1-8.84-12.16-13.17-18.31a77.93,77.93,0,0,1-4.3-7c-2.25-4-4.39-8.15-6.57-12.23a14.48,14.48,0,0,1-2-5.39c8.21,14.34,17,28,34.52,34.19l-6.35-10.88c8.3,1.8,11,12.78,20.87,12.33l-1.38-9.2,0.64-.28,2.07,4.09,1.32-.57-13.84-32,0.65-.36c4.4,8.5,8.66,17.08,13.29,25.45,1.54,2.79,3.94,5.15,6.16,7.52a2.72,2.72,0,0,0,2.68.12,3.56,3.56,0,0,0,1-2.84c-0.43-2.54-1.22-5-1.12-7.71l2.33,7.25,0.72-.11L204,83.74l0.74-.16,2.44,7.92c5.89-3.35,9.48-17,10.35-24.74,1.15-10.3-7.19-17.32-6.27-27L213.31,46c1.07-2.55.86-2.45-3.8-12.82-2-4.53-2.87-9.58-4.53-14.29s-3.59-9-5.41-13.49ZM169.9,237.41c7.23-2.6,13.52-5,17.13-11.72C180.88,223.69,171.43,229.89,169.9,237.41ZM308,209.1c4.14,4.48,9.14,3.62,12.09-2Zm-90.41,18.77-1.28-2.7L209,229.28l0.92,1.81Zm84.56-5.81-0.42-2.72-5.5.43,0.65,3.55Z" transform="translate(0 -0.03)" fill="#f8f8f8"/>
      <path d="M432.65,184.38a33.39,33.39,0,0,0,4.85,2.36c4.59,1.34,6.18,5.7,8.54,9,1.4,1.92,1.48,5.75.61,8.17-1.54,4.29-3,8.59-6.84,12.08-4.51,4.13-10.47,4-14.37,3.2-5.42-1.14-10-6.14-11.76-12.63-2-7.57,1.1-12,6.59-17.79C424.55,184.21,430,187.43,432.65,184.38Z" transform="translate(0 -0.03)" fill="#f8f8f8"/>
      <path d="M119,358.78a21,21,0,0,1,2.5-4c4-4,8.36-7.65,12.11-11.86,2.06-2.31,2.91-5.65,4.72-8.24a111,111,0,0,1,9.92-12.89c10.4-11,21-21.69,31.76-32.34,1.87-1.85,4.56-2.87,7.1-3.91-11.31,14-26.45,24.15-36.47,39.15l69.63-60.62,0.86,1-101.2,94.3Z" transform="translate(0 -0.03)" fill="#f8f8f8"/>
      <path d="M488.73,78.61l-6.83,4.76c-4.06,2.85-10.52,2.52-14.71-.76-4-3.11-5.53-10-4.41-14.38,1.62-6.34,6.45-9.4,11.67-10.46,3.14-.63,7.56,1.77,10.44,4,3.1,2.43,4.16,6.75,4.82,10.7C490.08,74.69,484.52,76.05,488.73,78.61Z" transform="translate(0 -0.03)" fill="#f8f8f8"/>
      <path d="M462,34.09c-14.8,11.16-29.22,23-45.15,32.75l-0.78-1.15,10.07-7-0.7-1.1-22.5,14.35L402,70.41Z" transform="translate(0 -0.03)" fill="#f8f8f8"/>
      <path d="M466.81,101.81c-2,1.41-3.82,3.67-6,4-3.73.63-5.77-1.9-5.76-5.65,0-3.44,2.52-5.57,5.34-5.17,2.29,0.33,4.27,2.84,6.39,4.39v2.39Z" transform="translate(0 -0.03)" fill="#f8f8f8"/>
      <path d="M190.2,250.69l-22.73,10.58c0-4.13,14.27-12,22-12.34Z" transform="translate(0 -0.03)" fill="#f8f8f8"/>
      <path d="M75.56,228.56l19.87-3.28,0.41,2.55-20,3Z" transform="translate(0 -0.03)" fill="#f8f8f8"/>
      <path d="M167.29,43.27L176,55.15l-1.85,1.35-8.39-12.05Z" transform="translate(0 -0.03)" fill="#ededed"/>
      <path d="M169.9,237.41c1.53-7.52,11-13.76,17.13-11.72C183.42,232.46,177.13,234.81,169.9,237.41Z" transform="translate(0 -0.03)" fill="#ededed"/>
      <path d="M308,209.1l12.09-2C317.18,212.69,312.18,213.58,308,209.1Z" transform="translate(0 -0.03)" fill="#ededed"/>
      <path d="M217.63,227.86l-7.76,3.23L209,229.28l7.39-4.12Z" transform="translate(0 -0.03)" fill="#ededed"/>
      <path d="M302.2,222l-5.27,1.26-0.65-3.55,5.5-.43Z" transform="translate(0 -0.03)" fill="#ededed"/>
    </g>
  </g>
  <g>
    <path d="M207.4,152.86a5.06,5.06,0,0,1-2.59-1.32l-2.28-2.28a4.67,4.67,0,0,0,2.47,1l4.7,1a0.79,0.79,0,0,1,.82.82v1.54Zm7.8-1.06a3,3,0,0,1,.94,2.21v3.12a3.25,3.25,0,0,1-3.41,3.41h-5.38a3.46,3.46,0,0,1-2.69-1.2l-1.94-1.94a3.37,3.37,0,0,0,2.23.5h5.38a2.88,2.88,0,0,0,3.17-3.17v-3.12a2.84,2.84,0,0,0-.6-2.11Zm-9.72,3.31a0.73,0.73,0,0,1-.82-0.82v-1.54l0.24-.24,2.59,2.59h-2Zm0.1-7.73a0.79,0.79,0,0,1-.82-0.82v-2.06a0.73,0.73,0,0,1,.82-0.82h3.94a0.71,0.71,0,0,1,.82.82v1.34h2.88v-1.78a4.18,4.18,0,0,0-.5-2.23l2.42,2.42a3.07,3.07,0,0,1,.72,2.21v2h-3.36l-2.16-2.16h-2.11a0.72,0.72,0,0,0-.82.82v0.62Z" transform="translate(0 -0.03)"/>
    <path d="M222.83,156v4.42h-3.41L217,158l0.24-.24h2.93v-4.32l2.42-3.1,0.48,0.14,1.66,3Zm-2.4-15.27,2.4,2.4V146l-2.64,3.58V141ZM226.84,158l0.24-.24h3.31l-5.57-10.22,5.11-6.67,0.53-.14,2.4,2.4-5.3,6.82,5.57,10.46h-3.89Z" transform="translate(0 -0.03)"/>
    <path d="M246.69,160.45H235.38L233,158l0.24-.24H244V155l0.24-.24,2.4,2.4v3.26Zm-7.85-14v1.39H236.2v-4H244V141l0.24-.24,2.4,2.4v3.26h-7.85Zm4,1.15,2.4,2.4v3.26h-6.36V155H236.2v-4.42h6.36v-2.78Z" transform="translate(0 -0.03)"/>
    <path d="M246,144l0.24-.24h4.51v2.64h-2.35Zm10.37,2.4v14.07H253l-2.4-2.4,0.24-.24h3V143.74h4.51V141l0.24-.24,2.4,2.4v3.22h-4.51Z" transform="translate(0 -0.03)"/>
    <path d="M275,157.14a3.25,3.25,0,0,1-3.41,3.41h-5.47a3.46,3.46,0,0,1-2.69-1.2l-1.94-1.94a3.37,3.37,0,0,0,2.23.5h5.47a2.88,2.88,0,0,0,3.17-3.17v-2.54l0.24-.24,2.4,2.4v2.78Zm-8-10.8a0.73,0.73,0,0,0-.82.82v8h-1.82a0.73,0.73,0,0,1-.82-0.82v-9.79a0.73,0.73,0,0,1,.82-0.82h4.22a0.73,0.73,0,0,1,.82.82v1.82H267Zm7.3-2.06a3.07,3.07,0,0,1,.72,2.21v2.78h-3.46l-2.4-2.4,0.24-.24h3v-2.54a3.72,3.72,0,0,0-.5-2.23Z" transform="translate(0 -0.03)"/>
    <path d="M281.54,160.45h-3.46l-2.4-2.4,0.24-.24h3l0-7.2h6.43v2.64h-3.79v7.2Zm-2.4-19.68,2.4,2.4v4.66h-2.64V141Zm8.35,19.68-2.4-2.4,0.24-.24h3V141l0.24-.24,2.4,2.4v17.28h-3.46Z" transform="translate(0 -0.03)"/>
  </g>
</svg>
