<?xml version="1.0" encoding="utf-8"?>
<!-- Generator: Adobe Illustrator 19.2.1, SVG Export Plug-In . SVG Version: 6.00 Build 0)  -->
<svg version="1.1" id="Layer_1" xmlns="http://www.w3.org/2000/svg" xmlns:xlink="http://www.w3.org/1999/xlink" x="0px" y="0px"
	 viewBox="0 0 461.7 322" style="enable-background:new 0 0 461.7 322;" xml:space="preserve">
<style type="text/css">
	.st0{fill:#FFFFFF;stroke:#F7F2F2;stroke-miterlimit:10;}
	.st1{stroke:#F7F2F2;stroke-miterlimit:10;}
</style>
<title>splatter2</title>
<g id="VkIz4N.tif">
	<g>
		<path class="st0" d="M110.8,0.5c7.6,7.1,15,14.5,23,21c2.3,1.9,6.5,1.4,9.8,2l0.6-1.3l-11.4-10.5l0.8-1.2c1.6,0.7,3.1,1.6,4.4,2.6
			c5.6,4.9,11.1,10,16.6,15.1c7.5,7,8.9,6.7,12.2-3.1c1.9,3,1.5,8.9,7.6,6l1.2-7h0.5l1.4,11.5l2-1.9l-0.8,4.6
			c4.3-0.3,8.4-0.5,12.4-1.1c3.1-0.5,6-1.7,9.1-2.4c4-0.9,8.2-2.7,12.1-2.2c5.6,0.7,9.9-1.4,14.5-3.7c10-5.1,20.1-10.1,30.2-15.1
			c0.7-0.2,1.4,0,1.9,0.4c-9.4,6.1-20.1,10-29.3,17c3.5,2,7.7,1.4,13.5-0.9c9.1-3.6,18.4-6.7,27.9-9.1c-8,3.2-15.9,6.4-24,9.5
			c-6.5,2.5-13,5-19.7,7.1c-3.9,1.2-4.7,4.3-6.1,7.2c-0.7,1.6-1.3,3.2-2.3,5.7c7.8,3.5,13.7-4.6,21.1-3.1l-18.6,7.3
			c1.7,4.5,4.3,5.6,8.1,4.9c5.4-1,10.8-1.8,16.3-2.6c1.4-0.2,2.8,0,4.1,0.6c-4.3,3.4-11.7,0.4-14.5,8.2c6.5,4,12.9,8.3,19.7,12
			c8.5,4.7,18.7,5.4,26.9,11.5c3.5,2.7,8.6,3.2,13,4.8c2.5,0.7,4.9,1.8,7.1,3.2c-8.8,1.6-16.2-6.6-25.2-3.4l24.7,7.9l-0.3,1.5
			c-1.1-0.2-2.2-0.4-3.3-0.7c-11.4-3.5-22.9-7-34.2-10.6c-3.2-1-5.8-0.9-7.9,2.7l5.4,1.9l-0.2,0.8l-6.4-1.1c0.2,3.2,0.3,3,5,3.3
			c2.5,0.2,4.8,1.2,7.3,1.4s5.1,0.1,9.2,0.1l-5.6,2.4c2.5,4.4,7,4.4,10.7,5.4s7.9,1.8,11.9,2.7l-0.4,1.5l-31.5-8l-0.6,1.6
			c6.4,2.3,12.9,4.6,19.3,6.8c1.4,0.5,2.9,0.4,4.2,1c29.9,12.1,59.7,24.4,89.6,36.5c10.8,4.4,21.9,3.9,33.3,2.2
			c7.9-1.1,16-0.2,24.1-0.2v1.8l-39.4,1.8l-0.2,0.6l13.5,5.2l-0.3,1.7c-15.2-9-31.6-6.5-47.8-6.4l19.8-3.3l0.1-0.8
			c-10.8-4.1-21.5-8.1-32.2-12.2c-4.5-1.7-9-3.4-13.6-4.9c-1.9-0.4-3.8-0.7-5.7-0.7c-1-0.9-1.8-2.3-3-2.8
			c-15.6-6.3-31.2-12.3-46.7-18.8c-7.1-3-13.8-6.8-20.8-10c-2-0.9-4.5-0.6-6.8-0.9l-0.4,1.5l7.5,5l-0.8,1.2l-5.2-0.6l-0.7,1.8
			l6.7,3.9c-0.2,0.3,0,0.7,0.3,0.9c0.3,0.2,0.7,0,0.9-0.3c0.2-0.3,0-0.7-0.3-0.9c-0.2-0.1-0.5-0.1-0.7,0c-0.6,0.1-1.2,0.2-2.5,0.4
			l24.2,15.2l-1,1.9c-1.9-0.7-3.7-1.5-5.5-2.4c-3.2-1.8-6.1-4-9.4-5.7c-1.3-0.7-3.7-1-4.5-0.2s-1,3.1-0.6,4.6c1,4,4.2,7,8.2,7.8
			l1.5,1.7l-4.7-0.7c-2.3,9.6,5.7,8.4,11.6,9.9c-4.3,2.5-9.6-1.8-12.9,3.7l13,9.6c-8.2-1.4-13.3-10.7-23.3-7.1
			c1.9,0.8,3.7,1.7,5.5,2.8c0.9,0.6,1.1,2.2,2,2.9c3.3,3,6.8,5.9,10.4,8.6c1.2,0.9,3.5,1.4,4.7,0.9c8.5-3.7,17.1-5.1,25.8-2.9
			c-0.2,0.5-1.2,1.7-1,2.6c2.8,11.3,2.5,12.1-7.8,18.3l3.7,3.9l-0.4,0.6c-1.2-0.9-2.4-1.9-3.6-2.7c-3.3-2.2-7.8-1.3-10,2
			c0,0,0,0,0,0l0,0c-1.6,2.2-4,3.8-5.5,6c-1,1.3-1.9,3.8-1.4,4.9c2.6,4.9,1.4,13.4-2.8,16.6c-1.5,1.2-2.9,2.7-4.4,4l0.3,2.1l-14-5.6
			l0.5,5.4c-5.1,3.9-10,7.9-15.2,11.3c-2.2,1.5-5.3,1.5-7.9,2.5c-3.4,1.4-6.6,3.1-9.6,4.5l0.7-3l-11.4,3.9l0.4-2.8l-4.9,5.4
			c1.2-3.6,3.6-6.7-1.2-7.1l1.9,1.9l-16.1,14.6l-1.7-1.4c0.8-1,1.5-2,2.3-2.9c3.3-3.7,6.8-7.3,9.8-11.2c3.6-4.7,2.5-7.4-3.6-9.4
			l-6,12.9l-1-0.4l4.8-11.9c-5.1-2-4.3,3.4-7,5l1.1-4.8c-6,0.5-6.2,6.6-10.5,8.6l5-8.7c-3.6,1.6-6.2,2.4-8.3,3.9
			c-2.4,1.6-3.4,3.9-0.4,6.1c6,4.5,5.7,11.5,7.2,17.8c0.2,1-1.4,2.2-1.5,3.4c-0.2,1.6-0.2,3.2-0.1,4.8l-9.3,11.2
			c-1.7,0-5.5-5-8.3,1.2l-2.2-3.2l-2.7,3.5c-1.7-2.1-1-8.8-6.5-3.5c-0.3-3.6,0.1-7.8-4.6-6.8c-1-2.1-2.1-5.6-2.9-5.6
			c-2.5,0.2-4.9,1.7-7.3,2.7l1,0.9l9.4-22l-1.4-1.1l-5.9,2.5c-1.1,5.2-1.1,9.8-3.1,13.5c-2.9,5.5-8,5.8-13.1,2.1
			c-1.6-1.2-3.8-1.6-5.5-2.2c6.2-8.5,0.8-15.1-15-16.8c0.5-0.8,0.8-1.6,1-2.5c0.1-2.6,1.1-6.5-0.2-7.6c-1.6-1.3-5.4-1-7.8-0.2
			c-4.4,1.5-8.4,4-12.6,6c-2.4,1.2-4.9,2.1-7.6,2.4l5.9-3.3l-1.4,1.4c-0.8-1.7-2.2-3.4-2.1-5c0.1-1.3,2.1-2.5,3.3-3.7
			c0.2-0.3,0.5-0.5,0.8-0.6c8.9-2.7,10.3-10.4,12.1-17.9c1.4-5.1,3-10.1,4.9-15c0.2-0.5,2.5-1,3.1-0.5c2.3,1.8,4.5,3.7,6.7,5.8
			c5.8-6.5,8.1-6.7,12.7-2.3c2.8-2.6,5.3-5.4,8.3-7.6c2.5-1.9,5.3-3.4,8.4-4.2c2.3-0.6,5,0.2,8.2,0.5l1.9-3.5
			c-8-5.6-13.2,2.2-19.9,3.6l8.1-6l-0.4-0.9l-10.9,4l-0.3-0.7l22.8-10.2l-0.8-1.7l-10.6,4.7c3.4-3.6,6.5-6.5,9.1-9.8
			c1.2-1.5,1.5-3.7,2.3-5.5c-1.6-0.6-3.2-1.2-4.9-1.9c-2-0.8-4-1.6-6.2-2.5l11-1.2c-3.5-6.5-8-6.9-11.9-1.2
			c-1.7,2.8-3.8,5.2-6.3,7.2l7-11.1c-3.5,0-6.5-0.2-9.4,0.1c-3.6,0.3-5.3,2.3-4.4,6.2c1.6,7.2-4.4,15.3-11.9,15.6
			c-3,0.1-4.7,0.5-5.6,4c-1.6,6.2-7.9,8.7-13.9,6.3c-10.9-4.4-14.7-14.8-8.5-23.5c4.2-5.8,8.5-6.5,16.6-2.8l10.9-8
			c0.2-3.1-0.2-6.1,0.7-8.7c1.3-3.9,0-4.7-3.3-3.8c-2.7,0.8-5.3,1.9-7.9,2.9c-1.3,0.5-2.7,1-4.4,1.6l8.6-13l-1.3-1.2
			c-1.7,1.1-3.5,2.1-5.4,2.9c-0.9,0.3-2.2-0.6-3.3-1c0.4-1,0.9-1.9,1.5-2.7c0.7-0.6,1.9-0.6,2.7-1.2c1.2-1.1,2.4-2.2,3.5-3.5
			c-1.5-0.6-3.2-2-4.5-1.7c-6.7,1.4-13.4,3.2-20.1,4.9c-0.9,0.2-1.8,1.1-2.7,1.2c-1.2-0.1-2.4-0.3-3.6-0.7c0.8-1.1,1.3-2.7,2.3-3.1
			c3.8-1.2,7.8-1.8,11.6-3.1c2.8-1,6.4-1.8,6.9-6.9c-21,5.6-38.5,18.2-59.1,23c3.5-1.9,7-3.9,10.6-5.6c21.1-9.8,42.4-19.2,63.4-29.4
			c2.6-1.3,4.1-5.7,5.3-9c2.2-6.3,0.3-9-6.2-11.2C95,79.2,86,79,76.8,78.9c-16.8-0.2-33.5-1.7-50.3-2.7c-0.2-0.1-0.3-0.2-0.3-0.4
			c6,0,12.2-0.2,18.5,0c9.2,0.3,18.3,1,27.4,1.3c1.8-0.1,3.5-0.5,5.2-1.1c1.1-0.3,2.4-1.4,3.2-1.1c6.7,2.6,10.7-3.5,16.2-4.9
			c0.6-0.1,1-1.2,2.1-2.5H55.5v-1.4h35.5v-1.8c-26.7-2.8-53.6,0.4-80.3-1.3v-1.5h4.6c23.8-0.3,47.6-0.4,71.4-1.1
			c4-0.1,7.8-3.1,11.7-4.8L98.4,54c-2.2-0.8-4.3-2.2-6.6-2.4C79,50,66,48.7,53.1,47.3c-1.4-0.1-2.7-0.8-3.7-1.8
			c4.9,0.4,9.9,0.7,14.8,1.2c10.4,1.2,20.8,2.7,31.2,3.6c3,0.3,6.2-0.7,9.3-1.1l0.1-2.6L82,44l0.1-1.3l26.6,2c0.4-5-2.7-6-6.1-6.9
			c-9.6-2.6-19.1-5.3-28.6-8l0.4-1.5l33.4,8.9l0.5-2l-12-2.5l0.2-1l20.5,1.7c-0.7-9.8-9.6-6.5-13.1-11.4c2.7,0.6,5.3,1.6,8.1,1.8
			c4.5,0.3,9.1,0.2,13.6,0.2c0-2,0.8-4.7-0.2-5.8c-4.2-4.7-9-8.9-13.4-13.4c-1.1-1.3-2.1-2.8-3-4.3H110.8z M140.3,211.7
			c-3.7-1.4-19,4.7-24,8.8c3.9,7.5,10,7.4,17.1,5.1c1.7-0.6,4.1,0.8,7.1,1.5l-11.7,3.4l4.4,3.2l-5.1,0.2l4.6,4.9l1.8-3.4l1.7,0.6
			c-0.8,2.5-1.6,5-2.2,7.5c-0.2,1-0.3,2.1-0.2,3.1c0.9,0,2,0.4,2.6,0c4.3-2.8,9.1-5.2,12.6-8.9c3.3-3.4,9.1-6.3,6.7-12.6
			c-7.6-3.6-9,2.4-12,6.8v-6.5l-2.7-0.2c5.1-7.4,11.9,0.2,18.4-3.3c-3.1-2.4-6.5-6.4-8-5.8c-6.1,2.5-11-1.4-16.5-1.5L140.3,211.7z
			 M152.9,34.2c-8-7.8-21.3-9.7-28-4c2.7,5.8,7.2,8,13.5,7.3c1.7-0.1,3.3,0.2,4.9,0.8C148,40.1,150.7,37.8,152.9,34.2L152.9,34.2
			L152.9,34.2z M125.2,152.7c4-0.4,7.1-0.5,9.9-1.2c3.4-0.8,4.3-4,2-6.7c-2.1-2.5-4.4-4.8-6.3-7
			C123.1,141.3,126.8,147.3,125.2,152.7z M132.1,138c2.8,1,5.7,1.7,8.6,2.3c0.5,0.1,2.4-3.3,2-3.9c-2.2-2.7-4.5-5.3-7.1-7.7
			L132.1,138z M265.4,170.4l-11.1-9.2l-3,5.2C255.4,169.5,258.7,173.2,265.4,170.4L265.4,170.4L265.4,170.4z M253.1,160.4
			c-3.2-2.8-6.1-5.4-9.1-7.9c-1-0.6-2.2-1-3.4-1.2c-0.4,0.4-0.7,0.9-0.8,1.5c0.8,1,1.7,1.8,2.7,2.6c1.2,1.1,2.9,1.9,3.7,3.2
			c1.2,2,1.9,4.3,3.1,7.4L253.1,160.4z M109.1,219.2l22.4-12.2l-0.8-1.4C123,209.2,114.3,211.1,109.1,219.2L109.1,219.2z M126,135.2
			l1.7-0.2l5.8-8.3l-0.3-1.4c-2.4,0.4-6.4,0-6.9,1.2C125.3,129,126,132.2,126,135.2L126,135.2L126,135.2z M82.6,236.8l1.1,1
			c2.3-1.1,4.9-2,6.9-3.6c1-0.8,1.2-2.8,1.7-4.2c-1.4,0.1-3.4-0.3-4.2,0.5C86,232.2,84.4,234.6,82.6,236.8z M219.7,161l-0.5,1.5
			c5.3,5.6,8.5,6.5,10.9,2.5L219.7,161z M99.9,56.2L99.7,58c10,2.3,10,2.3,12.5-0.6L99.9,56.2z M226.4,185.5c5.9-1.8,2.6-6.1,3.7-9
			l-3.1-0.8L226.4,185.5z"/>
		<path class="st1" d="M459.8,168.5l-41.4-2v-1.8c13.8-0.5,27.6,0.5,41.4,1.8L459.8,168.5L459.8,168.5z"/>
		<path class="st0" d="M64.6,300.6l0.5-1.6l-4-0.4c-6.2,6.9-13.8,12-24.5,9.2c-0.9-0.2-2.2,1-3.3,1.7c-1.5,1.1-3.1,2-4.8,2.8
			c4.5-4.1,9.6-7.6,10.5-14.7l-4.2-0.5c4.5-4.7,8.2-10,13.2-13c3.2-1.9,8.6-0.8,12.7,0.1c2.1,0.5,3.6,3.5,5,4.9l14.4-9.3l0.9,0.8
			l-2.6,4.7l3.1,0.1c0.8,5,3.6,10.5-1.9,14.6C74.7,303.6,69.6,302.5,64.6,300.6z"/>
		<path class="st0" d="M85.9,312.4c3.4-6.8,2.3-13.2-1-19.9c4.6-2.3,8.7-5.1,13.3-6.4c2.4-0.7,6.8,0.5,8.2,2.3
			c1.6,2.3,1.9,6.5,1.1,9.4c-0.7,3.3-3.9,5.4-7.2,4.8c-1.8-0.2-3.9,1.8-5.9,2.8c-0.4,0.3-0.8,0.5-1.2,0.6c-3.8-3.7-3.4,1.2-4.5,2.4
			c-0.9,0.9-0.9,2.6-1.4,4L85.9,312.4z"/>
		<path class="st0" d="M130.9,307.6c-4.4-0.2-8.8-3.7-8.7-6.8c0.3-5.7,5.4-11.8,9.8-11.7c5.3,0,10.1,5.1,9.8,10.3
			C141.6,304.1,136.7,307.8,130.9,307.6z"/>
		<path class="st0" d="M245.1,258.8c-3.4-3.3-5.1-7.1-2.2-11.5c2.3-3.4,5.8-4.3,9.7-3c2.6,0.9,8.7,9.1,8.1,11.6
			c-0.3,1.3-2,3.2-3.1,3.2c-4.2,0.2-8.5-0.3-12.7-0.5L245.1,258.8z"/>
		<path class="st0" d="M403.7,166.6l-75.3,5.8C332.2,168.5,384.5,164.5,403.7,166.6z"/>
		<path class="st0" d="M45.7,250.1c0,3.9-3.4,7.6-7,7.5c-4.1,0-8.8-3.8-8.9-7.2c-0.1-3.1,4.8-6.8,9-6.7
			C42.7,243.8,45.8,246.7,45.7,250.1z"/>
		<path class="st0" d="M265.8,139.4l-1.5-1.7c0.6-0.5,1.4-1.4,1.8-1.3c6.3,2.7,12.5,5.7,18.8,8.4c6.8,2.9,13.8,5.7,20.7,8.5
			c1.1,0.5,2.2,1,3.3,1.5l-0.6,1.4l-24.8-9.6l-0.5,0.8l8.9,4.8C282.5,149.8,273.6,145.4,265.8,139.4z"/>
		<path class="st1" d="M0.6,150.5L46,138.9l0.3,1.3c-14.6,5.9-30.1,8.2-45.2,12.2L0.6,150.5z"/>
		<path class="st0" d="M23.8,196.8c-3.9-0.3-6.6-2.4-5.9-6c0.3-1.7,3.5-3.6,5.6-4c3.1-0.5,6.1,1.2,6.2,4.9
			C29.8,195.5,26.8,196.5,23.8,196.8z"/>
		<path class="st1" d="M88.8,141.1l-28,12l-0.8-1.6L87.9,139L88.8,141.1z"/>
		<path class="st1" d="M86.2,131.6c-6.3,3.9-13.6,4.4-20.6,5.8l-0.5-1.8l20.6-5.4L86.2,131.6z"/>
		<path class="st1" d="M108.7,194.9c-1.9,1.6-3.1,3.3-4.2,3.2s-2.4-1.7-3.5-2.7c1-1.1,1.9-2.9,3.1-3.1S106.6,193.6,108.7,194.9z"/>
		<path class="st1" d="M290.3,243.7l13.5,8.8C300,253.7,294.4,250.2,290.3,243.7z"/>
		<path class="st1" d="M367.9,313.5l-13.2-13.4l0.2-0.2l12.5,14.1L367.9,313.5z"/>
		<path class="st1" d="M244.9,258.6c0.5,2.5,0.5,4.9-2.8,4.8c-0.9,0-2.7-1.9-2.6-2.8c0.5-4,3.2-2.6,5.6-1.9L244.9,258.6z"/>
		<path class="st1" d="M243.8,314.7c0.5,1.4,1.6,2.8,1.4,4.1c0,1.5-1.2,2.8-2.7,2.8c-1.3,0-2.5-0.9-2.7-2.2c-0.2-0.9,1-2.2,1.7-3.3
			L243.8,314.7z"/>
		<path class="st1" d="M353.5,294.4l-11.6-5.8l0.7-1.4l11.8,5.6L353.5,294.4z"/>
		<path class="st1" d="M435,176.4l-15.6-6l0.4-1.2l15.7,6.1L435,176.4z"/>
		<path class="st0" d="M140.3,211.7l-5.4,2.9c5.5,0.1,10.4,4,16.5,1.5c1.5-0.6,4.9,3.5,8,5.8c-6.5,3.6-13.3-4.1-18.4,3.3l2.7,0.2
			v6.6c3-4.4,4.4-10.3,12-6.8c2.4,6.3-3.5,9.2-6.7,12.6c-3.5,3.6-8.3,6-12.6,8.9c-0.6,0.4-1.7,0-2.6,0c0-1,0.1-2.1,0.2-3.1
			c0.7-2.5,1.5-5,2.2-7.5l-1.7-0.6l-1.8,3.4l-4.5-4.9l5.1-0.2l-4.4-3.2l11.7-3.4c-3-0.7-5.4-2.1-7.1-1.5c-7.1,2.3-13.2,2.4-17.1-5.1
			C121.3,216.4,136.6,210.3,140.3,211.7z"/>
		<path class="st0" d="M152.9,34.2c-2.3,3.6-4.9,6-9.6,4.1c-1.5-0.7-3.2-1-4.9-0.8c-6.3,0.8-10.8-1.5-13.5-7.3
			C131.6,24.5,144.9,26.3,152.9,34.2z"/>
		<path class="st0" d="M125.2,152.7c1.7-5.4-2.1-11.5,5.6-14.8c1.9,2.1,4.2,4.5,6.3,7c2.3,2.7,1.5,5.9-2,6.7
			C132.2,152.2,129.2,152.3,125.2,152.7z"/>
		<path class="st0" d="M132.1,138l3.5-9.3c2.5,2.4,4.9,5,7.1,7.7c0.4,0.6-1.5,3.9-2,3.9C137.8,139.7,134.9,139,132.1,138z"/>
		<path class="st0" d="M265.4,170.4c-6.7,2.8-10-1-14-4l3-5.2L265.4,170.4z"/>
		<path class="st0" d="M253.1,160.4l-3.9,5.5c-1.3-3.1-1.9-5.4-3.1-7.4c-0.8-1.3-2.5-2.1-3.7-3.2c-1-0.8-1.9-1.7-2.7-2.6
			c0.1-0.6,0.4-1.1,0.8-1.5c1.2,0.1,2.4,0.5,3.4,1.2C247,154.9,249.9,157.6,253.1,160.4z"/>
		<path class="st0" d="M109.2,219.2c5.1-8.1,13.9-9.9,21.6-13.5l0.8,1.4L109.2,219.2z"/>
		<path class="st0" d="M126,135.2c0-2.9-0.8-6.2,0.3-8.7c0.5-1.2,4.5-0.9,6.9-1.2l0.3,1.4l-5.8,8.3L126,135.2z"/>
		<path class="st0" d="M82.6,236.8c1.8-2.1,3.4-4.5,5.5-6.4c0.9-0.8,2.8-0.3,4.2-0.5c-0.5,1.4-0.7,3.4-1.7,4.2
			c-2,1.5-4.6,2.4-6.9,3.6L82.6,236.8z"/>
		<path class="st0" d="M219.7,161l10.5,4c-2.4,4-5.6,3.1-10.9-2.5L219.7,161z"/>
		<path class="st0" d="M99.9,56.2l12.4,1.2c-2.6,2.9-2.6,2.9-12.5,0.6L99.9,56.2z"/>
		<path class="st0" d="M226.4,185.5l0.6-9.9l3.1,0.8C229,179.4,232.3,183.8,226.4,185.5z"/>
	</g>
</g>
<g>
	<path d="M165.9,124.2h-11.3l-2.4-2.4l0.2-0.2h10.8v-2.8l0.2-0.2l2.4,2.4C165.9,120.9,165.9,124.2,165.9,124.2z M158.1,110.2v1.4
		h-2.6v-4h7.9v-2.8l0.2-0.2l2.4,2.4v3.3L158.1,110.2L158.1,110.2z M162.1,111.3l2.4,2.4v3.2h-6.4v1.8h-2.6v-4.4h6.4v-2.8
		L162.1,111.3z"/>
	<path d="M172.2,124.2H169l-2.4-2.4l0.2-0.2h2.8v-12.3l2.6,4.9L172.2,124.2L172.2,124.2z M170.1,104.8l0.2-0.2l2.4,2.4l4.1,7.6v2
		h-0.3L170.1,104.8z M178.6,124.2l-2.4-2.4l0.2-0.2h3.2v-16.8l0.2-0.2l2.4,2.4v17.3H178.6L178.6,124.2z"/>
	<path d="M196.7,120.9c0.1,1.8-1.3,3.3-3.1,3.4c-0.1,0-0.2,0-0.3,0h-5c-1,0-2-0.4-2.7-1.2l-1.9-1.9c0.7,0.4,1.5,0.6,2.2,0.5h5
		c1.6,0.2,3-1,3.2-2.6c0-0.2,0-0.4,0-0.6v-13.7l0.2-0.2l2.4,2.4L196.7,120.9L196.7,120.9z M186.5,118.9c-0.4,0.1-0.8-0.2-0.8-0.6
		c0-0.1,0-0.1,0-0.2v-3.1l0.2-0.2l2.4,2.4v1.8H186.5L186.5,118.9z"/>
	<path d="M211.7,108c0.5,0.6,0.8,1.4,0.7,2.2v10.7c0.1,1.8-1.3,3.3-3.1,3.4c-0.1,0-0.2,0-0.3,0h-5.8c-1,0-2-0.4-2.7-1.2l-1.9-1.9
		c0.7,0.4,1.5,0.6,2.2,0.5h5.8c1.6,0.2,3-1,3.2-2.6c0-0.2,0-0.4,0-0.6v-10.6c0-0.8-0.1-1.5-0.5-2.2L211.7,108z M206,107.4
		c0.4-0.1,0.8,0.2,0.8,0.6c0,0.1,0,0.1,0,0.2v1.8h-2.7c-0.4-0.1-0.8,0.2-0.8,0.6c0,0.1,0,0.1,0,0.2v8h-1.8c-0.4,0.1-0.8-0.2-0.8-0.6
		c0-0.1,0-0.1,0-0.2v-9.8c-0.1-0.4,0.2-0.8,0.6-0.8c0.1,0,0.1,0,0.2,0L206,107.4L206,107.4z"/>
	<path d="M214.9,104.7l0.2-0.2l2.4,2.4l1.6,3.7l-0.7,1.5h-0.2L214.9,104.7z M222.4,124.2H219l-2.4-2.4l0.2-0.2h3v-5.9l5.2-10.9
		l0.4-0.2l2.4,2.4l-5.3,11.3L222.4,124.2L222.4,124.2z"/>
	<path d="M150.9,136.5l0.2-0.2h4.5v2.6h-2.4L150.9,136.5z M161.3,138.9V153h-3.5l-2.4-2.4l0.2-0.2h3v-14.1h4.5v-2.7l0.2-0.2l2.4,2.4
		v3.2L161.3,138.9L161.3,138.9z"/>
	<path d="M171.8,153h-3.5l-2.4-2.4l0.2-0.2h3v-7.2h6.4v2.6h-3.8L171.8,153L171.8,153z M169.4,133.3l2.4,2.4v4.7h-2.6v-6.8
		L169.4,133.3z M177.7,153l-2.4-2.4l0.2-0.2h3v-16.8l0.2-0.2l2.4,2.4V153H177.7L177.7,153z"/>
	<path d="M196.3,153H185l-2.4-2.4l0.2-0.2h10.8v-2.8l0.2-0.2l2.4,2.4L196.3,153L196.3,153z M188.4,139v1.4h-2.6v-4h7.9v-2.8l0.2-0.2
		l2.4,2.4v3.2H188.4z M192.4,140.1l2.4,2.4v3.3h-6.4v1.8h-2.6v-4.4h6.4v-2.8L192.4,140.1z"/>
	<path d="M157.6,174.2c-1-0.2-1.9-0.6-2.6-1.3l-2.3-2.3c0.7,0.6,1.6,0.9,2.5,1l4.7,1c0.4,0,0.8,0.3,0.8,0.8c0,0,0,0,0,0.1v1.5
		L157.6,174.2z M165.4,173.2c0.6,0.6,0.9,1.4,0.9,2.2v3.1c0.1,1.8-1.3,3.3-3.1,3.4c-0.1,0-0.2,0-0.3,0h-5.4c-1,0-2-0.4-2.7-1.2
		l-1.9-1.9c0.7,0.4,1.5,0.6,2.2,0.5h5.4c1.6,0.2,3-1,3.2-2.6c0-0.2,0-0.4,0-0.6V173c0.1-0.8-0.1-1.5-0.6-2.1L165.4,173.2z
		 M155.7,176.5c-0.4,0.1-0.8-0.2-0.8-0.6c0-0.1,0-0.1,0-0.2v-1.5l0.2-0.2l2.6,2.6L155.7,176.5L155.7,176.5z M155.8,168.7
		c-0.4,0-0.8-0.3-0.8-0.8c0,0,0,0,0-0.1v-2.1c-0.1-0.4,0.2-0.8,0.6-0.8c0.1,0,0.1,0,0.2,0h3.9c0.4-0.1,0.8,0.2,0.8,0.6
		c0,0.1,0,0.2,0,0.2v1.3h2.9v-1.8c0-0.8-0.1-1.5-0.5-2.2l2.4,2.4c0.5,0.6,0.8,1.4,0.7,2.2v2h-3.4l-2.2-2.2h-2.1
		c-0.4-0.1-0.8,0.2-0.8,0.6c0,0.1,0,0.1,0,0.2v0.6L155.8,168.7z"/>
	<path d="M173.1,181.8h-3.5l-2.4-2.4l0.2-0.2h3V172h6.4v2.6h-3.8L173.1,181.8L173.1,181.8z M170.7,162.1l2.4,2.4v4.7h-2.6v-6.8
		L170.7,162.1z M179,181.8l-2.4-2.4l0.2-0.2h3v-16.8l0.2-0.2l2.4,2.4v17.3H179z"/>
	<path d="M197.8,165.6c0.5,0.6,0.8,1.4,0.7,2.2v10.7c0.1,1.8-1.3,3.3-3.1,3.4c-0.1,0-0.2,0-0.3,0h-5.8c-1,0-2-0.4-2.7-1.2l-1.9-1.9
		c0.7,0.4,1.5,0.6,2.2,0.5h5.8c1.6,0.2,3-1,3.2-2.6c0-0.2,0-0.4,0-0.6v-10.7c0-0.8-0.1-1.5-0.5-2.2L197.8,165.6z M192.1,165
		c0.4-0.1,0.8,0.2,0.8,0.6c0,0.1,0,0.1,0,0.2v1.8h-2.7c-0.4-0.1-0.8,0.2-0.8,0.6c0,0.1,0,0.1,0,0.2v8h-1.8c-0.4,0.1-0.8-0.2-0.8-0.6
		c0-0.1,0-0.1,0-0.2v-9.8c-0.1-0.4,0.2-0.8,0.6-0.8c0.1,0,0.1,0,0.2,0L192.1,165L192.1,165z"/>
	<path d="M201.2,162.4l0.2-0.2l2.4,2.4l0.7,7.8l-0.7,2.9h-0.2L201.2,162.4z M204.4,181.8l-2.4-2.4l0.2-0.2h2.9l3.1-11.9l1.6,6.4
		l-2,8.1H204.4L204.4,181.8z M209.5,162.4l0.1-0.2l2.4,2.4l1.4,7.4l-0.5,3.1h-0.3L209.5,162.4z M213.5,181.8l-2.4-2.4l0.2-0.2h2.8
		l4.3-16.9l0.2-0.2l2.4,2.4l-4.3,17.3L213.5,181.8L213.5,181.8z"/>
</g>
</svg>
